# xmcd CD database file
#
# Track frame offsets:
#	150
#	20935
#	47517
#
# Disc length: 907 seconds
#
# Revision: 0
# Processed by: cddbd v1.5.1PL2 Copyright (c) Steve Scherf et al.
# Submitted via: CDex 1.51
#
DISCID=20038903
DTITLE=江口洋介 - ＴＲＡＶＥＬＩＮＧ　ＢＯＹ〜解き放たれた矢のように〜ＴＢＳ系全国ネットドラマ「結婚しようよ」主題歌〜
DYEAR=1996
DGENRE=JPop
TTITLE0=ＴＲＡＶＥＬＩＮＧ　ＢＯＹ〜解き放たれた矢のように
TTITLE1=ＴＲＡＶＥＬＩＮＧ　ＢＯＹ〜解き放たれた矢のように（MESCOLARE DEL GIORNO）
TTITLE2=ＴＲＡＶＥＬＩＮＧ　ＢＯＹ〜解き放たれた矢のように（オリジナルカラオケ）
EXTD=YEAR: 1996/5/2
EXTT0=
EXTT1=
EXTT2=
PLAYORDER=
